<svg width="26" height="11" viewBox="0 0 26 11" fill="none" xmlns="http://www.w3.org/2000/svg">
<path fill-rule="evenodd" clip-rule="evenodd" d="M3.3462 1.93296C3.81624 1.97261 4.28628 1.69506 4.58006 1.34316C4.86894 0.981348 5.05989 0.49563 5.01093 0C4.59475 0.0198252 4.08064 0.277553 3.78686 0.639363C3.51757 0.95161 3.28745 1.45715 3.3462 1.93296ZM8.93774 8.31668V0.589812H11.8021C13.2807 0.589812 14.3138 1.62072 14.3138 3.12744C14.3138 4.63415 13.2611 5.67497 11.7629 5.67497H10.1226V8.31668H8.93774ZM5.006 2.02714C4.5919 2.00301 4.21406 2.1532 3.90886 2.27451C3.71246 2.35257 3.54614 2.41868 3.41961 2.41868C3.27762 2.41868 3.10444 2.34904 2.90999 2.27085C2.65521 2.16839 2.36392 2.05125 2.05845 2.05687C1.35829 2.06679 0.707086 2.46825 0.349659 3.10761C-0.38478 4.38633 0.158705 6.27964 0.868662 7.32046C1.2163 7.83592 1.63248 8.40094 2.18086 8.38111C2.42211 8.37189 2.59566 8.29735 2.77526 8.22021C2.98203 8.13139 3.19683 8.03913 3.53223 8.03913C3.85599 8.03913 4.0614 8.12899 4.25858 8.21525C4.44606 8.29726 4.62611 8.37603 4.89339 8.3712C5.46135 8.36128 5.81878 7.85574 6.16642 7.34029C6.54157 6.78706 6.70643 6.24715 6.73145 6.16521L6.73438 6.15573C6.73378 6.15513 6.72915 6.15298 6.72097 6.14919C6.59556 6.09107 5.63702 5.64687 5.62783 4.45572C5.6186 3.45593 6.38811 2.94937 6.50925 2.86963L6.50926 2.86962C6.51663 2.86477 6.5216 2.8615 6.52384 2.85979C6.03422 2.12626 5.2704 2.04696 5.006 2.02714ZM16.478 8.37612C17.2223 8.37612 17.9126 7.99448 18.226 7.38981H18.2505V8.31664H19.3472V4.47055C19.3472 3.35539 18.4659 2.63672 17.1096 2.63672C15.8513 2.63672 14.921 3.3653 14.8867 4.36647H15.9541C16.0423 3.89067 16.478 3.57842 17.0754 3.57842C17.8 3.57842 18.2064 3.9204 18.2064 4.54985V4.9761L16.7277 5.06531C15.3519 5.14957 14.6077 5.71954 14.6077 6.7108C14.6077 7.71197 15.3764 8.37612 16.478 8.37612ZM16.7962 7.45924C16.1646 7.45924 15.7631 7.15195 15.7631 6.6811C15.7631 6.19538 16.1499 5.91288 16.8893 5.86827L18.2063 5.78401V6.22017C18.2063 6.94378 17.5992 7.45924 16.7962 7.45924ZM22.9851 8.61899C22.5102 9.97206 21.9667 10.4181 20.8112 10.4181C20.7231 10.4181 20.4293 10.4082 20.3607 10.3884V9.46156C20.4342 9.47147 20.6153 9.48138 20.7084 9.48138C21.2323 9.48138 21.526 9.25835 21.7072 8.67846L21.8149 8.33648L19.8075 2.71108H21.0462L22.4416 7.27583H22.4661L23.8616 2.71108H25.066L22.9851 8.61899ZM10.1225 1.60087H11.4886C12.5168 1.60087 13.1044 2.15598 13.1044 3.13237C13.1044 4.10876 12.5168 4.66882 11.4837 4.66882H10.1225V1.60087Z" fill="black"/>
</svg>
