<svg width="25" height="11" viewBox="0 0 25 11" fill="none" xmlns="http://www.w3.org/2000/svg">
<path fill-rule="evenodd" clip-rule="evenodd" d="M11.5296 8.75809V5.73713H13.0888C13.7277 5.73713 14.267 5.52305 14.7066 5.10083L14.8121 4.99379C15.6152 4.11962 15.5624 2.75781 14.7066 1.94905C14.2787 1.52088 13.6926 1.28896 13.0888 1.30085H10.5859V8.75809H11.5296ZM11.5298 4.82135V2.21666H13.1126C13.4527 2.21666 13.7751 2.34749 14.0155 2.58536C14.5255 3.08489 14.5372 3.91744 14.0448 4.43481C13.8044 4.69052 13.4644 4.83324 13.1126 4.82135H11.5298ZM19.2142 4.05421C18.8097 3.67957 18.2587 3.48927 17.5612 3.48927C16.6644 3.48927 15.9903 3.82229 15.5448 4.48238L16.3772 5.01164C16.682 4.55969 17.0982 4.33371 17.6257 4.33371C17.9598 4.33371 18.2822 4.45859 18.5342 4.68457C18.7804 4.89865 18.9211 5.20789 18.9211 5.53496V5.75499C18.5577 5.5528 18.1005 5.44576 17.5378 5.44576C16.8813 5.44576 16.3537 5.60037 15.961 5.91555C15.5683 6.23073 15.369 6.647 15.369 7.17626C15.3573 7.65795 15.5624 8.11585 15.9259 8.42508C16.2951 8.7581 16.7641 8.92461 17.315 8.92461C17.9657 8.92461 18.4815 8.63322 18.8742 8.05044H18.9152V8.7581H19.8179V5.61226C19.8179 4.95217 19.6186 4.42886 19.2142 4.05421ZM16.6529 7.81849C16.4594 7.67576 16.3421 7.44384 16.3421 7.19408C16.3421 6.91458 16.4711 6.68265 16.7232 6.4983C16.9812 6.31396 17.3036 6.21881 17.6847 6.21881C18.2123 6.21286 18.6227 6.3318 18.9158 6.56967C18.9158 6.97405 18.7575 7.3249 18.4468 7.62224C18.1654 7.90769 17.7843 8.06825 17.3857 8.06825C17.1219 8.0742 16.8639 7.98499 16.6529 7.81849ZM21.846 11L24.9995 3.65579H23.9738L22.5142 7.31899H22.4967L21.002 3.65579H19.9762L22.0453 8.43104L20.873 11H21.846Z" fill="#3C4043"/>
<path d="M8.27202 5.08295C8.27202 4.79156 8.24857 4.50017 8.20168 4.21472H4.22168V5.86197H6.50183C6.40804 6.39124 6.10324 6.86698 5.65776 7.16431V8.23473H7.01764C7.81481 7.49139 8.27202 6.39124 8.27202 5.08295Z" fill="#4285F4"/>
<path d="M4.22211 9.26949C5.35925 9.26949 6.32055 8.88889 7.01807 8.23475L5.65819 7.16433C5.27719 7.42599 4.79068 7.57466 4.22211 7.57466C3.12013 7.57466 2.18815 6.81942 1.85404 5.80847H0.453125V6.91457C1.16824 8.35963 2.62776 9.26949 4.22211 9.26949Z" fill="#34A853"/>
<path d="M1.85401 5.80847C1.67814 5.27921 1.67814 4.70238 1.85401 4.16717V3.06702H0.452877C-0.150959 4.27421 -0.150959 5.70143 0.452877 6.90862L1.85401 5.80847Z" fill="#FBBC04"/>
<path d="M4.22211 2.40102C4.82585 2.38913 5.40614 2.62105 5.8399 3.04327L7.04738 1.81824C6.27951 1.09273 5.27133 0.694298 4.22211 0.706191C2.62776 0.706191 1.16824 1.62199 0.453125 3.06706L1.85404 4.17315C2.18815 3.15626 3.12013 2.40102 4.22211 2.40102Z" fill="#EA4335"/>
</svg>
