<svg width="21" height="18" viewBox="0 0 21 18" fill="none" xmlns="http://www.w3.org/2000/svg">
<path fill-rule="evenodd" clip-rule="evenodd" d="M2.90001 12.241H1.34439C1.23794 12.241 1.1474 12.3183 1.1308 12.4234L0.501632 16.4125C0.489127 16.4912 0.550085 16.5621 0.629927 16.5621H1.37259C1.47905 16.5621 1.56958 16.4848 1.58618 16.3795L1.75588 15.3036C1.77225 15.1982 1.863 15.121 1.96924 15.121H2.46169C3.48643 15.121 4.0778 14.6251 4.23233 13.6424C4.3019 13.2125 4.23527 12.8748 4.0339 12.6381C3.81285 12.3784 3.42064 12.241 2.90001 12.241ZM3.07948 13.6979C2.99443 14.2561 2.56792 14.2561 2.15553 14.2561H1.92078L2.08547 13.2136C2.09525 13.1507 2.14984 13.1042 2.21353 13.1042H2.32112C2.60204 13.1042 2.86706 13.1042 3.00401 13.2643C3.08559 13.3599 3.11064 13.5018 3.07948 13.6979ZM7.55012 13.68H6.80517C6.7417 13.68 6.68686 13.7264 6.67707 13.7895L6.64412 13.9978L6.59202 13.9223C6.43075 13.6882 6.07117 13.61 5.71222 13.61C4.88896 13.61 4.1859 14.2335 4.04896 15.1081C3.9778 15.5443 4.07896 15.9615 4.32643 16.2524C4.55348 16.5199 4.87833 16.6314 5.26475 16.6314C5.92801 16.6314 6.29591 16.2049 6.29591 16.2049L6.26265 16.4119C6.25012 16.4911 6.31107 16.562 6.39044 16.562H7.06149C7.16823 16.562 7.25823 16.4847 7.27507 16.3794L7.6777 13.8297C7.69044 13.7513 7.6297 13.68 7.55012 13.68ZM6.5117 15.1299C6.4398 15.5555 6.10201 15.8412 5.67128 15.8412C5.45496 15.8412 5.28201 15.7718 5.17106 15.6403C5.06096 15.5098 5.01906 15.3239 5.05412 15.117C5.12127 14.695 5.46475 14.4 5.88896 14.4C6.10044 14.4 6.27244 14.4702 6.3857 14.6029C6.49917 14.7369 6.54423 14.9238 6.5117 15.1299ZM10.769 13.6799H11.5176C11.6224 13.6799 11.6836 13.7975 11.624 13.8835L9.13423 17.4774C9.09392 17.5356 9.0275 17.5702 8.95655 17.5702H8.20886C8.1036 17.5702 8.04212 17.4517 8.10307 17.3655L8.87834 16.2712L8.05381 13.8514C8.02528 13.7673 8.08739 13.6799 8.17686 13.6799H8.91244C9.00802 13.6799 9.09234 13.7427 9.11992 13.8341L9.5575 15.2956L10.59 13.7748C10.6304 13.7154 10.6976 13.6799 10.769 13.6799Z" fill="#253B80"/>
<path fill-rule="evenodd" clip-rule="evenodd" d="M18.8851 16.4124L19.5236 12.3504C19.5334 12.2874 19.588 12.2409 19.6515 12.2407H20.3702C20.4496 12.2407 20.5105 12.3119 20.498 12.3906L19.8684 16.3795C19.852 16.4847 19.7615 16.5621 19.6548 16.5621H19.0129C18.9336 16.5621 18.8726 16.4912 18.8851 16.4124ZM13.9958 12.2409H12.4399C12.3337 12.2409 12.2431 12.3183 12.2265 12.4234L11.5973 16.4124C11.5848 16.4912 11.6458 16.5621 11.7252 16.5621H12.5236C12.5978 16.5621 12.6612 16.508 12.6728 16.4343L12.8513 15.3036C12.8678 15.1982 12.9585 15.1209 13.0647 15.1209H13.5569C14.5819 15.1209 15.1731 14.625 15.3278 13.6424C15.3976 13.2125 15.3305 12.8747 15.1292 12.6381C14.9083 12.3784 14.5164 12.2409 13.9958 12.2409ZM14.1752 13.6979C14.0904 14.2561 13.6639 14.2561 13.2512 14.2561H13.0167L13.1817 13.2136C13.1914 13.1506 13.2456 13.1042 13.3094 13.1042H13.417C13.6978 13.1042 13.963 13.1042 14.0999 13.2643C14.1816 13.3599 14.2064 13.5018 14.1752 13.6979ZM18.6455 13.68H17.901C17.837 13.68 17.7827 13.7264 17.7731 13.7895L17.7402 13.9978L17.6879 13.9223C17.5266 13.6882 17.1672 13.61 16.8083 13.61C15.985 13.61 15.2822 14.2335 15.1452 15.1081C15.0743 15.5443 15.175 15.9615 15.4225 16.2524C15.65 16.5199 15.9744 16.6314 16.3608 16.6314C17.0241 16.6314 17.3919 16.2048 17.3919 16.2048L17.3587 16.4119C17.3462 16.491 17.4071 16.562 17.487 16.562H18.1578C18.264 16.562 18.3545 16.4846 18.3711 16.3794L18.774 13.8297C18.7863 13.7513 18.7254 13.68 18.6455 13.68ZM17.6071 15.1299C17.5357 15.5555 17.1975 15.8412 16.7666 15.8412C16.5507 15.8412 16.3775 15.7718 16.2664 15.6403C16.1563 15.5098 16.1149 15.3239 16.1496 15.1169C16.217 14.6949 16.5601 14.4 16.9843 14.4C17.1959 14.4 17.3678 14.4702 17.4811 14.6028C17.595 14.7368 17.6401 14.9238 17.6071 15.1299Z" fill="#179BD7"/>
<path d="M8.65665 10.8139L8.84791 9.59919L8.42191 9.5893H6.3877L7.80138 0.625466C7.8057 0.598403 7.82001 0.573171 7.84086 0.555255C7.8617 0.53734 7.88844 0.527466 7.91623 0.527466H11.3462C12.485 0.527466 13.2708 0.764424 13.6811 1.23212C13.8734 1.45153 13.9959 1.68081 14.0552 1.93312C14.1173 2.19788 14.1184 2.51419 14.0577 2.89998L14.0533 2.92813V3.17532L14.2457 3.2843C14.4077 3.37023 14.5363 3.4686 14.6351 3.58123C14.7997 3.76882 14.9061 4.00724 14.9511 4.28991C14.9975 4.58062 14.9821 4.92655 14.9061 5.31819C14.8183 5.76871 14.6765 6.16108 14.4849 6.48214C14.3086 6.77798 14.084 7.02329 13.8175 7.2135C13.563 7.39413 13.2606 7.53129 12.9187 7.61908C12.5873 7.70529 12.2096 7.74887 11.7953 7.74887H11.5283C11.3375 7.74887 11.152 7.81761 11.0065 7.94087C10.8607 8.06666 10.764 8.23845 10.7344 8.42645L10.7143 8.53582L10.3764 10.6768L10.3611 10.7554C10.3571 10.7804 10.3501 10.7928 10.3399 10.8012C10.3308 10.8088 10.3176 10.8139 10.3048 10.8139H8.65665Z" fill="#253B80"/>
<path d="M14.4279 2.95679C14.4177 3.02224 14.406 3.08916 14.3928 3.1579C13.9404 5.48032 12.3929 6.28262 10.4164 6.28262H9.41008C9.1684 6.28262 8.96471 6.45813 8.92703 6.69655L8.41176 9.96428L8.26587 10.8905C8.24134 11.047 8.36208 11.1882 8.51998 11.1882H10.3049C10.5163 11.1882 10.6958 11.0346 10.729 10.8262L10.7466 10.7354L11.0827 8.6028L11.1043 8.48585C11.1371 8.27669 11.317 8.12311 11.5284 8.12311H11.7954C13.5246 8.12311 14.8784 7.42101 15.2741 5.38927C15.4394 4.54053 15.3538 3.83185 14.9164 3.33343C14.7841 3.18313 14.6199 3.05844 14.4279 2.95679Z" fill="#179BD7"/>
<path d="M13.9545 2.76819C13.8854 2.74808 13.814 2.72979 13.7409 2.71334C13.6674 2.69726 13.592 2.68299 13.5146 2.67056C13.2432 2.62668 12.9459 2.60583 12.6274 2.60583H9.93897C9.87276 2.60583 9.80992 2.62082 9.7536 2.64789C9.6296 2.70749 9.5375 2.82488 9.51518 2.96858L8.94318 6.59098L8.92676 6.69665C8.96444 6.45823 9.16813 6.28271 9.40981 6.28271H10.4161C12.3927 6.28271 13.9402 5.48005 14.3926 3.158C14.406 3.08926 14.4174 3.02234 14.4276 2.95689C14.3132 2.89618 14.1892 2.84426 14.0557 2.8C14.0229 2.78904 13.9889 2.77844 13.9545 2.76819Z" fill="#222D65"/>
<path d="M9.51557 2.96854C9.53788 2.82483 9.63009 2.70745 9.75399 2.6482C9.81073 2.62114 9.87325 2.60615 9.93936 2.60615H12.6279C12.9464 2.60615 13.2437 2.62699 13.5149 2.67088C13.5925 2.68331 13.6679 2.69757 13.7414 2.71366C13.8145 2.73012 13.8858 2.7484 13.9549 2.76851C13.9893 2.77875 14.0233 2.78935 14.0565 2.79996C14.19 2.84421 14.314 2.8965 14.4284 2.95684C14.5631 2.09859 14.4274 1.51424 13.9634 0.985106C13.4518 0.402588 12.5284 0.153198 11.3469 0.153198H7.91683C7.67546 0.153198 7.46967 0.328714 7.4323 0.567505L6.00367 9.62349C5.97546 9.80264 6.11367 9.96433 6.2943 9.96433H8.41199L8.94367 6.59093L9.51557 2.96854Z" fill="#253B80"/>
</svg>
