<svg width="23" height="14" viewBox="0 0 23 14" fill="none" xmlns="http://www.w3.org/2000/svg">
<path d="M4.82774 0.00158691H10.3435C11.1135 0.00158691 11.5924 0.629165 11.4127 1.40167L8.84475 12.427C8.66352 13.1969 7.89263 13.825 7.12214 13.825H1.6069C0.838023 13.825 0.358063 13.1969 0.537678 12.427L3.10674 1.40167C3.28636 0.629165 4.05685 0.00158691 4.82774 0.00158691Z" fill="#E21836"/>
<path d="M9.88404 0H16.227C16.9969 0 16.6497 0.627578 16.4686 1.40009L13.901 12.4255C13.7209 13.1953 13.7771 13.8234 13.0057 13.8234H6.66266C5.89123 13.8234 5.41382 13.1953 5.59505 12.4255L8.1625 1.40009C8.3448 0.627578 9.11368 0 9.88404 0Z" fill="#00447C"/>
<path d="M15.9756 0H21.4914C22.2624 0 22.7413 0.627578 22.5602 1.40009L19.9926 12.4255C19.8114 13.1953 19.0399 13.8234 18.269 13.8234H12.7558C11.9844 13.8234 11.5059 13.1953 11.6866 12.4255L14.2546 1.40009C14.4342 0.627578 15.2041 0 15.9756 0Z" fill="#007B84"/>
<path d="M6.2678 3.53338C5.70058 3.53916 5.53307 3.53338 5.47956 3.52075C5.45899 3.61849 5.07623 5.38412 5.07516 5.3856C4.99274 5.74281 4.93278 5.99745 4.7291 6.16187C4.61348 6.25746 4.4785 6.30357 4.32201 6.30357C4.07047 6.30357 3.92392 6.17867 3.89932 5.94179L3.89461 5.86045C3.89461 5.86045 3.97125 5.38197 3.97125 5.37928C3.97125 5.37928 4.37296 3.77027 4.44489 3.55758C4.44865 3.54548 4.44973 3.53916 4.45067 3.53338C3.66875 3.54024 3.53014 3.53338 3.5206 3.52075C3.51535 3.53809 3.49599 3.63784 3.49599 3.63784L3.08581 5.45134L3.05058 5.60514L2.98242 6.10823C2.98242 6.25746 3.01173 6.37926 3.07008 6.48225C3.25695 6.80881 3.79002 6.85774 4.09157 6.85774C4.48011 6.85774 4.84459 6.7752 5.09088 6.62449C5.51841 6.37187 5.63027 5.97701 5.73003 5.62612L5.77627 5.4461C5.77627 5.4461 6.19009 3.77498 6.2604 3.55758C6.26309 3.54548 6.26417 3.53916 6.2678 3.53338ZM7.67577 4.88149C7.57602 4.88149 7.39371 4.90569 7.22996 4.98595C7.17054 5.01647 7.11434 5.0517 7.05505 5.08679L7.10856 4.89359L7.07925 4.86106C6.73199 4.93137 6.65428 4.94078 6.3335 4.98595L6.30661 5.00384C6.26937 5.31265 6.2363 5.54483 6.09822 6.15184C6.04566 6.37555 5.99107 6.60142 5.93635 6.82459L5.95114 6.85296C6.27986 6.83562 6.37961 6.83561 6.6653 6.84032L6.68843 6.81518C6.72473 6.62925 6.72943 6.58569 6.80983 6.20911C6.84761 6.03057 6.92639 5.63827 6.96524 5.49858C7.03663 5.46551 7.10708 5.43298 7.1743 5.43298C7.33442 5.43298 7.31493 5.57266 7.30874 5.62832C7.30189 5.72176 7.24354 6.02694 7.18371 6.28897L7.14378 6.4581C7.11595 6.583 7.08544 6.7044 7.05761 6.82822L7.06971 6.85296C7.39371 6.83562 7.49253 6.83561 7.76921 6.84032L7.80174 6.81518C7.85176 6.52478 7.86641 6.44708 7.95514 6.02425L7.99978 5.82998C8.08649 5.44978 8.13005 5.25699 8.06445 5.09996C7.99507 4.92398 7.82863 4.88149 7.67577 4.88149ZM9.24864 5.27956C9.07642 5.31264 8.96658 5.33468 8.85742 5.34894C8.74919 5.36628 8.64365 5.38201 8.47721 5.40513L8.46404 5.4171L8.45194 5.42664C8.43459 5.5506 8.42249 5.65775 8.3995 5.78372C8.38001 5.914 8.35003 6.06202 8.30123 6.27471C8.26345 6.43752 8.24395 6.49425 8.22244 6.55152C8.20147 6.6088 8.17835 6.66446 8.13586 6.82458L8.14581 6.83937L8.15415 6.85294C8.3097 6.84555 8.41147 6.84031 8.51607 6.83937C8.62053 6.8356 8.72875 6.83937 8.89627 6.84031L8.91092 6.82834L8.92665 6.81517C8.95085 6.67077 8.95448 6.63192 8.96927 6.56147C8.98393 6.48592 9.0092 6.38132 9.07118 6.10195C9.10049 5.97073 9.13316 5.83992 9.16354 5.70601C9.19513 5.57265 9.22821 5.4413 9.25967 5.31008L9.25496 5.29422L9.24864 5.27956ZM9.25231 4.74284C9.09582 4.65048 8.82116 4.67979 8.6363 4.80737C8.45198 4.93241 8.431 5.10987 8.58696 5.20344C8.74076 5.29325 9.0165 5.2665 9.19975 5.13783C9.38366 5.01011 9.40665 4.83426 9.25231 4.74284ZM10.1987 6.88189C10.5153 6.88189 10.8399 6.79464 11.0842 6.5357C11.2721 6.3257 11.3583 6.01326 11.3881 5.88459C11.4853 5.45814 11.4096 5.25903 11.3146 5.13777C11.1702 4.95291 10.915 4.89362 10.6503 4.89362C10.4911 4.89362 10.112 4.90935 9.81583 5.1824C9.60314 5.37936 9.50486 5.64663 9.44557 5.90288C9.38575 6.16397 9.31691 6.63398 9.74915 6.80889C9.88251 6.86616 10.0748 6.88189 10.1987 6.88189ZM10.174 5.92237C10.247 5.59944 10.3332 5.32841 10.5531 5.32841C10.7255 5.32841 10.738 5.53007 10.6613 5.85408C10.6476 5.926 10.5847 6.19341 10.4996 6.30728C10.4402 6.39131 10.3699 6.44226 10.2922 6.44226C10.269 6.44226 10.1315 6.44226 10.1293 6.23804C10.1283 6.13721 10.1488 6.03423 10.174 5.92237ZM12.1796 6.84036L12.2043 6.81522C12.2394 6.62929 12.2452 6.58559 12.3229 6.20915C12.3618 6.03061 12.4422 5.63831 12.4799 5.49862C12.5515 5.46542 12.6207 5.43288 12.6901 5.43288C12.8491 5.43288 12.8298 5.57257 12.8234 5.62823C12.8177 5.7218 12.7593 6.02685 12.6984 6.28888L12.6606 6.45801C12.6317 6.58304 12.6003 6.7043 12.5724 6.82826L12.5845 6.853C12.9096 6.83566 13.0047 6.83565 13.283 6.84036L13.3166 6.81522C13.3654 6.52469 13.3786 6.44698 13.47 6.02429L13.5135 5.82989C13.6007 5.44969 13.6448 5.25703 13.5802 5.1C13.5088 4.92402 13.3413 4.88153 13.1906 4.88153C13.0907 4.88153 12.9075 4.9056 12.7447 4.98599C12.6864 5.01651 12.6281 5.0516 12.5708 5.08683L12.6207 4.89363L12.594 4.86096C12.2468 4.93141 12.1675 4.94082 11.8471 4.98599L11.8225 5.00388C11.7837 5.31269 11.7521 5.54474 11.614 6.15188C11.5614 6.37559 11.5068 6.60146 11.4523 6.82463L11.4669 6.853C11.7962 6.83566 11.8944 6.83565 12.1796 6.84036ZM14.568 6.85293C14.5885 6.75318 14.7099 6.1619 14.711 6.1619C14.711 6.1619 14.8143 5.72805 14.8207 5.71232C14.8207 5.71232 14.8532 5.66715 14.8857 5.64927H14.9336C15.3852 5.64927 15.8951 5.64927 16.2948 5.35524C16.5668 5.15358 16.7527 4.85579 16.8357 4.49387C16.8572 4.40514 16.8731 4.2996 16.8731 4.19406C16.8731 4.05545 16.8452 3.91832 16.7648 3.81117C16.561 3.52602 16.1551 3.52077 15.6866 3.51862C15.6851 3.51862 15.4556 3.52077 15.4556 3.52077C14.8559 3.52817 14.6154 3.52602 14.5165 3.51392C14.5082 3.55761 14.4925 3.63532 14.4925 3.63532C14.4925 3.63532 14.2776 4.631 14.2776 4.63261C14.2776 4.63261 13.7635 6.74954 13.7393 6.8493C14.263 6.84298 14.4777 6.84298 14.568 6.85293ZM14.9661 5.0842C14.9661 5.0842 15.1945 4.09054 15.1935 4.0943L15.2009 4.04335L15.2041 4.0045L15.2954 4.01391C15.2954 4.01391 15.7665 4.05437 15.7775 4.05545C15.9634 4.12738 16.0401 4.31277 15.9865 4.55477C15.9377 4.77593 15.7943 4.96186 15.61 5.05167C15.4582 5.12776 15.2722 5.13408 15.0807 5.13408H14.9567L14.9661 5.0842ZM16.3883 5.94078C16.3279 6.1981 16.2586 6.66811 16.6887 6.83563C16.8258 6.89398 16.9487 6.91132 17.0736 6.905C17.2055 6.89788 17.3277 6.83173 17.4409 6.73654C17.4306 6.77567 17.4204 6.81479 17.4102 6.85405L17.4297 6.87919C17.7391 6.86615 17.835 6.86615 18.1702 6.8687L18.2006 6.84558C18.2495 6.55787 18.2956 6.2785 18.4228 5.72809C18.4848 5.46445 18.5467 5.20336 18.6102 4.94079L18.6003 4.91189C18.2542 4.97602 18.1617 4.98973 17.8289 5.03692L17.8036 5.05749C17.8002 5.08425 17.7967 5.10992 17.7935 5.1356C17.7417 5.05198 17.6667 4.98059 17.551 4.93609C17.4029 4.87788 17.0553 4.95289 16.7564 5.22501C16.5464 5.41928 16.4456 5.68547 16.3883 5.94078ZM17.1151 5.95651C17.1892 5.63936 17.2743 5.37101 17.4948 5.37101C17.6342 5.37101 17.7076 5.49967 17.6927 5.71908C17.6808 5.7738 17.6681 5.83148 17.6529 5.89668C17.6308 5.99093 17.6069 6.08436 17.5836 6.17794C17.56 6.24193 17.5324 6.30229 17.5022 6.34249C17.4454 6.42289 17.3105 6.47277 17.2327 6.47277C17.2107 6.47277 17.0746 6.47277 17.0699 6.27218C17.0689 6.17229 17.0894 6.06944 17.1151 5.95651ZM20.9105 4.90932L20.8837 4.8788C20.5413 4.94818 20.4793 4.9592 20.1647 5.00168L20.1416 5.02481C20.1405 5.02857 20.1396 5.03435 20.138 5.0396L20.1369 5.03435C19.9027 5.57468 19.9096 5.45812 19.7189 5.88349C19.7178 5.86413 19.7178 5.85203 19.7168 5.83146L19.669 4.90932L19.6391 4.8788C19.2804 4.94818 19.2719 4.9592 18.9406 5.00168L18.9148 5.02481C18.9112 5.03583 18.9112 5.04793 18.909 5.06111L18.9112 5.06581C18.9526 5.27743 18.9427 5.23024 18.9842 5.56419C19.0036 5.72808 19.0294 5.8929 19.0487 6.05477C19.0814 6.32567 19.0997 6.45904 19.1396 6.87245C18.9159 7.24163 18.8629 7.38132 18.6476 7.70532L18.649 7.70855L18.4974 7.9484C18.48 7.97367 18.4643 7.99101 18.4423 7.99841C18.4181 8.01037 18.3866 8.01253 18.3429 8.01253H18.2589L18.134 8.42795L18.5624 8.43535C18.814 8.43427 18.9721 8.31663 19.0572 8.15853L19.3266 7.69685H19.3223L19.3507 7.66432C19.5319 7.27417 20.9105 4.90932 20.9105 4.90932ZM16.3883 10.3653H16.2065L16.8793 8.14018H17.1025L17.1733 7.91095L17.1802 8.16586C17.1718 8.32342 17.2958 8.46311 17.6214 8.43999H17.998L18.1276 8.01152H17.9859C17.9044 8.01152 17.8666 7.99095 17.8713 7.94685L17.8645 7.68751H17.1671V7.68885C16.9417 7.69356 16.2684 7.7105 16.1321 7.7468C15.9671 7.78928 15.7933 7.91431 15.7933 7.91431L15.8616 7.68482H15.2092L15.0733 8.14018L14.3916 10.3994H14.2593L14.1295 10.8247H15.4288L15.3852 10.9666H16.0254L16.0679 10.8247H16.2475L16.3883 10.3653ZM15.8552 8.59231C15.7508 8.62121 15.5564 8.70887 15.5564 8.70887L15.7293 8.14018H16.2475L16.1225 8.55453C16.1225 8.55453 15.9624 8.56394 15.8552 8.59231ZM15.8652 9.40475C15.8652 9.40475 15.7024 9.42518 15.5952 9.44938C15.4897 9.48138 15.2918 9.58221 15.2918 9.58221L15.4703 8.99039H15.9913L15.8652 9.40475ZM15.5748 10.3706H15.0549L15.2056 9.87113H15.7239L15.5748 10.3706ZM16.8268 8.99039H17.5762L17.4685 9.33914H16.7092L16.5952 9.72042H17.2596L16.7565 10.4288C16.7213 10.4808 16.6897 10.4992 16.6546 10.5139C16.6194 10.5318 16.5731 10.5527 16.5196 10.5527H16.3353L16.2086 10.9703H16.6907C16.9413 10.9703 17.0894 10.8563 17.1987 10.7067L17.5436 10.2345L17.6177 10.7139C17.6335 10.8038 17.698 10.8563 17.7417 10.8768C17.7899 10.901 17.8398 10.9425 17.9103 10.9487C17.9858 10.9519 18.0404 10.9545 18.0767 10.9545H18.3136L18.4558 10.4871H18.3624C18.3088 10.4871 18.2164 10.4781 18.2007 10.4613C18.1849 10.4409 18.1849 10.4094 18.1765 10.3616L18.1013 9.88107H17.7936L17.9286 9.72042H18.6864L18.803 9.33914H18.1013L18.2106 8.99039H18.9101L19.0399 8.56031H16.9544L16.8268 8.99039ZM10.4975 10.4677L10.6724 9.88582H11.3913L11.5226 9.45305H10.8031L10.9129 9.09489H11.616L11.7463 8.67584H9.987L9.85942 9.09489H10.2591L10.1525 9.45305H9.75173L9.6189 9.89322H10.0185L9.78534 10.663C9.75388 10.7649 9.80013 10.8038 9.82943 10.8511C9.85942 10.8972 9.8898 10.9278 9.9581 10.9451C10.0285 10.9608 10.0768 10.9702 10.1424 10.9702H10.9528L11.0972 10.4908L10.738 10.5402C10.6686 10.5402 10.4765 10.5318 10.4975 10.4677ZM10.5799 7.6822L10.3978 8.01145C10.3588 8.08338 10.3237 8.12801 10.2921 8.14858C10.2643 8.16592 10.2091 8.17318 10.1293 8.17318H10.0342L9.90718 8.59439H10.2229C10.3746 8.59439 10.4912 8.53873 10.5469 8.5109C10.6067 8.47891 10.6224 8.49719 10.6687 8.45256L10.7753 8.36019H11.761L11.8918 7.92164H11.1703L11.2962 7.6822H10.5799ZM12.0352 10.4761C12.0184 10.4519 12.0305 10.4093 12.0562 10.3206L12.3256 9.42884H13.284C13.4237 9.42682 13.5246 9.42521 13.5902 9.4205C13.6606 9.41311 13.7372 9.38797 13.8207 9.34279C13.9069 9.29547 13.951 9.24559 13.9882 9.18832C14.0298 9.13118 14.0965 9.00615 14.1537 8.81336L14.4924 7.68485L13.4978 7.69063C13.4978 7.69063 13.1915 7.7358 13.0567 7.78568C12.9206 7.84134 12.7262 7.99676 12.7262 7.99676L12.816 7.6874H12.2016L11.3415 10.5401C11.311 10.6509 11.2905 10.7313 11.2858 10.7796C11.2842 10.8316 11.3514 10.8831 11.395 10.922C11.4465 10.9608 11.5226 10.9545 11.5956 10.9608C11.6723 10.9666 11.7815 10.9702 11.9322 10.9702H12.4044L12.5493 10.4808L12.1266 10.5208C12.0814 10.5208 12.0488 10.4966 12.0352 10.4761ZM12.4994 8.82653H13.5061L13.4421 9.02712C13.4331 9.03183 13.4116 9.01717 13.3092 9.02927H12.4374L12.4994 8.82653ZM12.7011 8.15378H13.7163L13.6433 8.39538C13.6433 8.39538 13.1648 8.39067 13.0881 8.40479C12.751 8.46314 12.554 8.64329 12.554 8.64329L12.7011 8.15378ZM13.4647 9.69884C13.4563 9.72882 13.4432 9.7471 13.4247 9.76082C13.4043 9.77399 13.3712 9.7787 13.3219 9.7787H13.1784L13.1869 9.53441H12.5903L12.5661 10.7287C12.5651 10.8148 12.5735 10.8647 12.6365 10.9047C12.6996 10.9545 12.8938 10.9609 13.1553 10.9609H13.5292L13.6642 10.5138L13.3387 10.5317L13.2305 10.538C13.2157 10.5317 13.2016 10.5259 13.1858 10.5102C13.1721 10.4966 13.149 10.505 13.1528 10.4188L13.1553 10.1127L13.4967 10.0985C13.681 10.0985 13.7598 10.0386 13.827 9.98144C13.8911 9.92672 13.9121 9.8638 13.9363 9.7787L13.9936 9.50766H13.5245L13.4647 9.69884Z" fill="#FEFEFE"/>
</svg>
