<svg width="313" height="160" viewBox="0 0 313 160" fill="none" xmlns="http://www.w3.org/2000/svg">
<g clip-path="url(#clip0_54748_4466)">
<path d="M96.2441 144.516C96.2441 136.052 122.876 129.102 155.701 129.102C188.527 129.102 215.159 136.052 215.159 144.585C215.147 145.551 214.834 146.489 214.264 147.269C209.309 154.495 184.948 160 155.701 160C122.876 160 96.2441 153.05 96.2441 144.516Z" fill="#CEEDA2"/>
<path d="M84.4107 133.987H27.1557C25.6883 133.991 24.2624 134.474 23.0955 135.364L1.07432 152.637C0.84615 152.811 0.678215 153.053 0.593922 153.328C0.509629 153.603 0.51318 153.897 0.604079 154.17C0.694977 154.442 0.868695 154.68 1.10101 154.849C1.33333 155.018 1.61268 155.111 1.90011 155.114H62.3895C63.9239 155.099 65.397 154.51 66.5185 153.462L85.0301 135.57C85.1649 135.446 85.259 135.283 85.3002 135.104C85.3413 134.926 85.3275 134.738 85.2606 134.567C85.1937 134.396 85.0769 134.25 84.9252 134.146C84.7736 134.043 84.5943 133.987 84.4107 133.987Z" fill="#CEEDA2"/>
<path d="M311.571 133.987H254.247C252.78 133.991 251.354 134.474 250.187 135.364L228.166 152.637C227.938 152.811 227.77 153.053 227.686 153.328C227.601 153.603 227.605 153.897 227.696 154.17C227.787 154.442 227.96 154.68 228.193 154.849C228.425 155.018 228.704 155.111 228.992 155.114H289.481C291.016 155.099 292.489 154.51 293.61 153.462L312.122 135.57C312.269 135.457 312.377 135.301 312.43 135.123C312.483 134.945 312.479 134.755 312.418 134.58C312.357 134.405 312.242 134.253 312.09 134.147C311.938 134.041 311.757 133.985 311.571 133.987Z" fill="#CEEDA2"/>
<path d="M96.2441 141.695C96.2441 133.231 122.876 126.28 155.701 126.28C188.527 126.28 215.159 133.231 215.159 141.764C215.147 142.73 214.834 143.668 214.264 144.448C209.309 151.673 184.948 157.179 155.701 157.179C122.876 157.179 96.2441 150.228 96.2441 141.695Z" fill="#8AC732"/>
<path d="M214.264 144.448C209.309 151.673 185.017 157.179 155.701 157.179C122.876 157.179 96.2441 150.228 96.2441 141.695C96.2441 141.695 106.567 154.151 153.637 154.151C194.101 154.219 210.41 146.581 214.264 144.448Z" fill="#4D662A"/>
<path d="M189.56 138.117C187.289 135.639 172.976 133.712 155.703 133.712C137.673 133.712 122.946 135.777 121.639 138.392C122.258 136.878 126.387 131.648 155.703 131.648C182.679 131.648 188.39 136.327 189.56 138.117Z" fill="#4D662A"/>
<path d="M84.8902 133.988L72.8474 47.8297C72.781 47.386 72.5562 46.9814 72.2147 46.6904C71.8732 46.3995 71.438 46.242 70.9894 46.2469H54.7487C54.4811 46.2485 54.2169 46.3071 53.9737 46.4186C53.7305 46.5302 53.5138 46.6923 53.338 46.8941C53.1623 47.0959 53.0315 47.3328 52.9544 47.589C52.8772 47.8452 52.8555 48.115 52.8907 48.3802L56.9509 80.9303C56.9902 81.2327 56.9643 81.5399 56.8748 81.8314C56.7854 82.1229 56.6345 82.3918 56.4324 82.6201C56.2302 82.8483 55.9815 83.0306 55.7029 83.1546C55.4243 83.2786 55.1224 83.3414 54.8176 83.3389H36.2372C35.6755 83.3425 35.1339 83.1303 34.7241 82.7461C34.3143 82.3619 34.0677 81.8351 34.0351 81.2744L32.5211 48.105C32.4976 47.6262 32.2923 47.1744 31.947 46.8418C31.6017 46.5093 31.1424 46.3211 30.6631 46.3158H15.4547C15.2034 46.3107 14.9538 46.3576 14.7215 46.4536C14.4892 46.5496 14.2793 46.6925 14.1048 46.8734C13.9304 47.0543 13.7952 47.2693 13.7078 47.5049C13.6203 47.7405 13.5825 47.9917 13.5967 48.2426L15.6611 104.947C15.7028 105.815 16.0757 106.634 16.7029 107.236C17.3301 107.838 18.164 108.176 19.0331 108.182H60.3917L63.626 134.125H84.8902V133.988Z" fill="#4D662A"/>
<path d="M312.052 133.987L300.009 47.8296C299.943 47.3859 299.718 46.9812 299.376 46.6903C299.035 46.3994 298.6 46.2419 298.151 46.2468H281.91C281.643 46.2484 281.379 46.3069 281.135 46.4185C280.892 46.5301 280.675 46.6922 280.5 46.8939C280.324 47.0957 280.193 47.3326 280.116 47.5889C280.039 47.8451 280.017 48.1148 280.052 48.3801L284.113 80.9302C284.152 81.2325 284.126 81.5398 284.037 81.8313C283.947 82.1228 283.796 82.3917 283.594 82.62C283.392 82.8482 283.143 83.0305 282.865 83.1545C282.586 83.2785 282.284 83.3413 281.979 83.3387H263.399C262.837 83.3423 262.296 83.1302 261.886 82.746C261.476 82.3618 261.229 81.835 261.197 81.2743L259.683 48.1049C259.659 47.626 259.454 47.1742 259.109 46.8417C258.763 46.5092 258.304 46.321 257.825 46.3156H242.685C242.434 46.3106 242.184 46.3575 241.952 46.4535C241.72 46.5494 241.51 46.6923 241.335 46.8733C241.161 47.0542 241.026 47.2692 240.938 47.5048C240.851 47.7404 240.813 47.9916 240.827 48.2425L242.892 104.947C242.933 105.815 243.306 106.634 243.933 107.236C244.561 107.838 245.395 108.176 246.264 108.181H287.622L290.856 134.125H312.052V133.987Z" fill="#4D662A"/>
<path d="M72.3655 48.7242L63.2817 151.673C63.2057 152.608 62.7818 153.48 62.0937 154.117C61.4056 154.754 60.5034 155.11 59.5657 155.114H45.9401C45.4101 155.114 44.8862 155.002 44.4029 154.784C43.9197 154.566 43.4882 154.249 43.1369 153.852C42.7856 153.455 42.5226 152.988 42.3652 152.482C42.2078 151.976 42.1597 151.442 42.224 150.916L47.9357 102.676L7.12774 103.364C6.60054 103.373 6.0779 103.265 5.5973 103.048C5.11671 102.832 4.69008 102.511 4.34802 102.11C4.00596 101.708 3.75695 101.236 3.61886 100.728C3.48076 100.219 3.45701 99.6856 3.54929 99.1664L3.68693 98.2718L13.0459 48.1048C13.1721 47.4298 13.5298 46.8198 14.0574 46.3802C14.585 45.9405 15.2494 45.6987 15.9362 45.6963H28.9425C29.3684 45.7033 29.7879 45.8018 30.1725 45.9849C30.5571 46.1681 30.898 46.4316 31.172 46.7578C31.446 47.084 31.6467 47.4652 31.7607 47.8757C31.8747 48.2861 31.8993 48.7163 31.8327 49.1371L26.2586 80.7925C26.2059 81.0913 26.22 81.398 26.3 81.6907C26.38 81.9833 26.5239 82.2546 26.7214 82.4849C26.9188 82.7153 27.1649 82.899 27.4419 83.0228C27.7188 83.1467 28.0198 83.2075 28.3231 83.2011H47.7981L52.34 48.036C52.4353 47.3719 52.7654 46.7638 53.2703 46.322C53.7752 45.8802 54.4217 45.6338 55.0926 45.6274H69.6128C69.997 45.6496 70.3731 45.7474 70.7195 45.9151C71.0659 46.0829 71.3758 46.3172 71.6314 46.6049C71.8871 46.8925 72.0836 47.2278 72.2095 47.5914C72.3355 47.9551 72.3885 48.34 72.3655 48.7242Z" fill="#8AC732"/>
<path d="M48.2115 98.2719L47.8674 102.676L7.05938 103.364C6.53218 103.373 6.00954 103.265 5.52894 103.048C5.04835 102.832 4.62172 102.511 4.27966 102.11C3.9376 101.708 3.68859 101.236 3.5505 100.728C3.4124 100.219 3.38865 99.6856 3.48094 99.1665L3.61857 98.2719H48.2115Z" fill="#4D662A"/>
<path d="M72.3663 48.7242L63.2825 151.673C63.2065 152.608 62.7825 153.48 62.0944 154.117C61.4063 154.754 60.5042 155.11 59.5664 155.114H57.502L68.3061 45.6963H69.6136C69.9961 45.7053 70.3728 45.7918 70.7209 45.9507C71.0689 46.1096 71.3811 46.3375 71.6385 46.6206C71.8959 46.9037 72.0931 47.2362 72.2182 47.5978C72.3433 47.9593 72.3937 48.3426 72.3663 48.7242Z" fill="#4D662A"/>
<path d="M26.1906 80.8613C26.1378 81.16 26.1519 81.4668 26.2319 81.7594C26.312 82.0521 26.4559 82.3233 26.6533 82.5537C26.8508 82.784 27.0968 82.9678 27.3738 83.0916C27.6508 83.2154 27.9517 83.2763 28.255 83.2698H24.2637C23.9194 83.2721 23.5787 83.1989 23.2657 83.0554C22.9527 82.9119 22.6749 82.7015 22.4519 82.4392C22.2289 82.1768 22.066 81.8688 21.9748 81.5367C21.8836 81.2047 21.8663 80.8567 21.924 80.5172L28.0486 45.765H28.9432C29.3692 45.7721 29.7886 45.8705 30.1732 46.0537C30.5579 46.2368 30.8987 46.5004 31.1727 46.8266C31.4467 47.1528 31.6475 47.534 31.7615 47.9444C31.8755 48.3549 31.9 48.7851 31.8335 49.2058L26.1906 80.8613Z" fill="#4D662A"/>
<path d="M299.455 48.7242L290.372 151.673C290.296 152.608 289.872 153.48 289.184 154.117C288.495 154.754 287.593 155.11 286.656 155.114H273.03C272.5 155.114 271.976 155.002 271.493 154.784C271.01 154.566 270.578 154.249 270.227 153.852C269.875 153.455 269.612 152.988 269.455 152.482C269.298 151.976 269.25 151.442 269.314 150.916L275.026 102.676L234.218 103.364C233.69 103.373 233.168 103.265 232.687 103.048C232.207 102.832 231.78 102.511 231.438 102.11C231.096 101.708 230.847 101.236 230.709 100.728C230.571 100.219 230.547 99.6856 230.639 99.1664L230.777 98.2718L240.136 48.1048C240.262 47.4298 240.62 46.8198 241.147 46.3802C241.675 45.9405 242.339 45.6987 243.026 45.6963H256.032C256.458 45.7033 256.878 45.8018 257.262 45.9849C257.647 46.1681 257.988 46.4316 258.262 46.7578C258.536 47.084 258.737 47.4652 258.851 47.8757C258.965 48.2861 258.989 48.7163 258.923 49.1371L253.348 80.7925C253.296 81.0913 253.31 81.398 253.39 81.6907C253.47 81.9833 253.614 82.2546 253.811 82.4849C254.009 82.7153 254.255 82.899 254.532 83.0228C254.809 83.1467 255.11 83.2075 255.413 83.2011H274.888L279.43 48.036C279.525 47.3719 279.855 46.7638 280.36 46.322C280.865 45.8802 281.512 45.6338 282.182 45.6274H296.703C297.091 45.6375 297.473 45.7271 297.825 45.8908C298.177 46.0545 298.492 46.2887 298.75 46.579C299.008 46.8693 299.204 47.2095 299.325 47.5785C299.447 47.9475 299.491 48.3374 299.455 48.7242Z" fill="#8AC732"/>
<path d="M275.37 98.2719L275.026 102.676L234.218 103.364C233.69 103.373 233.168 103.265 232.687 103.048C232.207 102.832 231.78 102.511 231.438 102.11C231.096 101.708 230.847 101.236 230.709 100.728C230.571 100.219 230.547 99.6856 230.639 99.1665L230.777 98.2719H275.37Z" fill="#4D662A"/>
<path d="M299.456 48.7242L290.372 151.673C290.296 152.608 289.872 153.48 289.184 154.117C288.496 154.754 287.594 155.11 286.656 155.114H284.592L295.396 45.6963H296.703C297.09 45.6931 297.472 45.7715 297.826 45.9264C298.18 46.0812 298.497 46.3089 298.757 46.5947C299.017 46.8805 299.213 47.2179 299.334 47.5848C299.454 47.9518 299.496 48.34 299.456 48.7242Z" fill="#4D662A"/>
<path d="M253.349 80.8613C253.296 81.16 253.31 81.4668 253.39 81.7594C253.47 82.0521 253.614 82.3233 253.812 82.5537C254.009 82.784 254.255 82.9678 254.532 83.0916C254.809 83.2154 255.11 83.2763 255.413 83.2698H251.422C251.078 83.2721 250.737 83.1989 250.424 83.0554C250.111 82.9119 249.833 82.7015 249.61 82.4392C249.387 82.1768 249.224 81.8688 249.133 81.5367C249.042 81.2047 249.024 80.8567 249.082 80.5172L255.207 45.765H256.101C256.527 45.7721 256.947 45.8705 257.331 46.0537C257.716 46.2368 258.057 46.5004 258.331 46.8266C258.605 47.1528 258.806 47.534 258.92 47.9444C259.034 48.3549 259.058 48.7851 258.992 49.2058L253.349 80.8613Z" fill="#4D662A"/>
<path opacity="0.28" d="M128.522 69.711L114.414 141.28C113.657 145.134 116.135 148.781 119.507 148.781H194.241C197.544 148.781 200.022 145.271 199.402 141.555L187.841 69.9863C187.359 67.096 185.226 65.0315 182.68 65.0315H133.683C131.205 64.9627 129.072 66.9584 128.522 69.711Z" fill="#8AC732"/>
<path d="M192.247 74.1862L199.06 96.8267C199.087 96.9411 199.138 97.0481 199.211 97.1403C199.284 97.2324 199.376 97.3074 199.481 97.3599C199.586 97.4125 199.702 97.4412 199.819 97.4442C199.937 97.4472 200.053 97.4244 200.161 97.3772C200.346 97.3051 200.499 97.1666 200.588 96.9885C200.677 96.8104 200.696 96.6056 200.643 96.4138L196.169 73.2228C196.099 72.9303 195.966 72.6565 195.779 72.4201C195.593 72.1837 195.358 71.9903 195.09 71.8531C194.822 71.7159 194.528 71.6382 194.227 71.6251C193.927 71.6121 193.627 71.6641 193.348 71.7776C192.905 71.9786 192.549 72.3331 192.347 72.7758C192.144 73.2185 192.109 73.7194 192.247 74.1862Z" fill="#FEC272"/>
<path d="M179.376 82.3745L183.78 99.8539C183.796 99.9273 183.827 99.9968 183.871 100.058C183.915 100.119 183.971 100.17 184.035 100.209C184.1 100.248 184.171 100.273 184.246 100.283C184.32 100.293 184.396 100.287 184.468 100.267C184.532 100.25 184.592 100.22 184.644 100.179C184.697 100.139 184.74 100.088 184.772 100.03C184.804 99.9724 184.824 99.9087 184.831 99.8429C184.838 99.7772 184.832 99.7107 184.813 99.6474L181.991 81.824C181.957 81.623 181.877 81.4324 181.759 81.266C181.641 81.0997 181.488 80.962 181.309 80.8629C181.131 80.7639 180.933 80.7061 180.729 80.6938C180.526 80.6815 180.322 80.7149 180.133 80.7918C179.849 80.9344 179.621 81.1673 179.484 81.4537C179.347 81.7402 179.309 82.0641 179.376 82.3745Z" fill="#FEC272"/>
<path d="M121.985 76.3883L116.273 93.7988C116.252 93.8756 116.215 93.947 116.164 94.0076C116.112 94.0683 116.048 94.1168 115.976 94.1497C115.903 94.1826 115.825 94.1991 115.745 94.1979C115.666 94.1967 115.587 94.1779 115.516 94.1429C115.387 94.0863 115.283 93.9865 115.22 93.8609C115.157 93.7352 115.14 93.5916 115.172 93.4548L119.301 75.6314C119.353 75.4346 119.447 75.2513 119.576 75.0935C119.705 74.9357 119.865 74.8071 120.047 74.716C120.23 74.6249 120.429 74.5736 120.632 74.5653C120.836 74.557 121.039 74.592 121.228 74.6679C121.543 74.8113 121.795 75.0661 121.935 75.3835C122.075 75.7009 122.092 76.0587 121.985 76.3883Z" fill="#FEC272"/>
<path d="M133.339 81.7552L125.907 114.099C125.891 114.172 125.86 114.242 125.817 114.303C125.773 114.364 125.717 114.415 125.652 114.454C125.588 114.493 125.516 114.518 125.442 114.528C125.367 114.538 125.291 114.532 125.219 114.512C125.155 114.495 125.095 114.465 125.043 114.424C124.991 114.384 124.948 114.333 124.915 114.275C124.883 114.217 124.863 114.154 124.856 114.088C124.849 114.022 124.856 113.956 124.875 113.892L130.724 81.2046C130.759 81.0037 130.838 80.813 130.956 80.6467C131.074 80.4803 131.228 80.3426 131.406 80.2435C131.584 80.1445 131.783 80.0867 131.986 80.0744C132.19 80.0621 132.394 80.0956 132.582 80.1724C132.89 80.2849 133.142 80.5136 133.284 80.8094C133.425 81.1053 133.445 81.4447 133.339 81.7552Z" fill="#FEC272"/>
<path d="M149.099 85.5381L145.521 109.004C145.511 109.081 145.484 109.155 145.442 109.219C145.4 109.284 145.344 109.338 145.277 109.378C145.211 109.418 145.136 109.442 145.059 109.449C144.982 109.456 144.905 109.445 144.833 109.417C144.704 109.375 144.594 109.291 144.519 109.179C144.444 109.067 144.409 108.933 144.42 108.798L146.347 85.1252C146.377 84.9275 146.449 84.7387 146.56 84.572C146.67 84.4053 146.816 84.2647 146.986 84.1599C147.156 84.0551 147.347 83.9886 147.546 83.9652C147.745 83.9417 147.946 83.9618 148.136 84.0241C148.299 84.0601 148.453 84.1278 148.589 84.2234C148.726 84.319 148.842 84.4406 148.932 84.5813C149.021 84.7219 149.082 84.8788 149.111 85.043C149.14 85.2071 149.136 85.3754 149.099 85.5381Z" fill="#FEC272"/>
<path d="M167.54 85.0591L168.435 122.289C168.434 122.367 168.416 122.443 168.384 122.514C168.351 122.585 168.304 122.648 168.246 122.7C168.188 122.752 168.12 122.791 168.046 122.815C167.971 122.839 167.893 122.847 167.816 122.839C167.685 122.816 167.565 122.749 167.478 122.649C167.39 122.549 167.339 122.422 167.334 122.289L164.788 85.0591C164.782 84.8587 164.821 84.6595 164.902 84.4758C164.982 84.2922 165.103 84.1287 165.254 83.9971C165.405 83.8655 165.584 83.7691 165.777 83.7147C165.97 83.6604 166.173 83.6495 166.37 83.6828C166.692 83.747 166.982 83.9179 167.195 84.1676C167.407 84.4174 167.529 84.7315 167.54 85.0591Z" fill="#FEC272"/>
<path d="M96.0395 51.2705C95.3465 50.4584 94.7677 49.5555 94.3191 48.5867L92.7363 37.989L96.3836 41.361L96.0395 51.2705Z" fill="#4D662A"/>
<path d="M198.714 54.8491C196.782 58.5165 194.35 61.8978 191.488 64.8963C185.295 71.5026 174.835 79.0036 159.282 79.0036C148.34 79.0036 140.22 75.3563 134.44 70.9521C128.999 66.8366 124.651 61.4491 121.777 55.262L198.714 54.8491Z" fill="#4D662A"/>
<path d="M198.714 54.8491C196.782 58.5165 194.35 61.8978 191.488 64.8963C185.052 67.3062 178.353 68.9462 171.531 69.7822C155.566 71.9155 143.11 71.7779 134.44 70.9521C128.999 66.8366 124.651 61.4491 121.777 55.262L198.714 54.8491Z" fill="#072359"/>
<path d="M222.936 37.5762C222.567 40.8485 221.969 44.0908 221.147 47.2793C220.913 48.1583 220.542 48.9945 220.046 49.7567C218.6 52.0965 215.848 54.6427 211.375 57.0512C210.618 57.4641 209.723 57.877 208.829 58.2899C208.14 58.634 207.452 58.9093 206.695 59.2533C205.663 59.6662 204.631 60.0791 203.53 60.492C199.032 62.0241 194.433 63.2428 189.766 64.1393C189.354 64.2081 189.009 64.2769 188.597 64.3457C187.564 64.5522 186.326 64.6898 185.018 64.8275C179.513 65.4468 172.218 65.8597 164.442 65.9973C162.997 65.9973 161.552 66.0661 160.107 66.0661C152.743 66.135 145.311 65.9285 138.842 65.5844C137.466 65.5156 136.09 65.4468 134.851 65.3092C131.665 65.1068 128.494 64.7162 125.354 64.1393C121.845 63.4511 118.679 62.6942 115.858 61.8684C114.688 61.5243 113.587 61.1802 112.486 60.8361C103.953 58.0147 98.7914 54.5738 96.1076 51.4083C95.7202 50.9837 95.3746 50.5228 95.0754 50.032C94.7929 49.6262 94.5618 49.187 94.3872 48.7245C94.166 48.2892 94.004 47.8263 93.9055 47.3481C93.3184 44.9926 92.8817 42.6022 92.598 40.1913C92.3227 37.9203 92.2539 36.4064 92.2539 36.4064L157.629 41.2923L223.005 37.6451L222.936 37.5762Z" fill="#CEEDA2"/>
<path d="M222.868 37.4386C222.749 38.1436 222.412 38.7935 221.905 39.2967C220.184 41.2923 216.055 44.2514 209.036 46.9353C208.141 47.2793 207.178 47.6234 206.146 47.9675C205.664 48.1051 205.182 48.3116 204.7 48.4492C203.668 48.7933 202.567 49.1374 201.397 49.4126C196.9 50.6731 192.326 51.6386 187.703 52.3029C186.464 52.5094 185.157 52.7158 183.78 52.8534C177.319 53.6719 170.817 54.1313 164.305 54.2298C162.929 54.2298 161.484 54.2986 160.039 54.2986H159.97C152.607 54.2986 145.794 53.9545 139.669 53.404C138.293 53.2663 136.917 53.1287 135.609 52.9911C129.587 52.328 123.611 51.2938 117.717 49.8943C116.547 49.6191 115.377 49.275 114.276 48.9997C104.022 46.1783 97.2784 42.6686 94.1817 39.7784C93.6402 39.2832 93.1555 38.7292 92.7365 38.1268C92.3616 37.6287 92.1458 37.0291 92.1172 36.4064C92.1172 31.5204 111.386 21.1292 160.314 21.1292C209.242 21.0604 222.868 34.0666 222.868 37.4386Z" fill="#4D662A"/>
<path d="M132.1 26.7033L96.3152 41.3612C94.9497 40.4108 93.7223 39.2761 92.668 37.9892L130.93 26.084L132.1 26.7033Z" fill="#072359"/>
<path d="M222.868 37.5074C222.73 38.1857 222.395 38.8083 221.904 39.2966L185.156 26.7032L186.326 26.1527L222.868 37.5074Z" fill="#072359"/>
<path d="M138.155 30.4881L117.716 49.8255C116.546 49.5502 115.376 49.2061 114.275 48.9309L136.916 30.4193L138.155 30.4881Z" fill="#072359"/>
<path d="M149.373 32.7591L139.67 53.404C138.293 53.2663 136.917 53.1287 135.609 52.9911L148.134 32.6903L149.373 32.7591Z" fill="#072359"/>
<path d="M187.771 52.3717C186.532 52.5782 185.156 52.7846 183.848 52.9223L174.352 32.7591L175.659 32.6903L187.771 52.3717Z" fill="#072359"/>
<path d="M164.304 54.2986C162.928 54.2986 161.483 54.3674 160.038 54.3674H159.969L161.62 34.0666L162.928 33.9978L164.304 54.2986Z" fill="#072359"/>
<path d="M208.966 46.9352C208.072 47.2793 207.108 47.6234 206.076 47.9674L181.371 30.4881L182.679 30.4193L208.966 46.9352Z" fill="#072359"/>
<path d="M164.374 65.8597C162.929 65.8597 161.484 65.9285 160.039 65.9285V54.2986L164.306 54.2297L164.374 65.8597Z" fill="#4D662A"/>
<path d="M188.461 64.2081C187.36 64.4145 186.19 64.5521 184.882 64.6898L183.781 52.8534L187.704 52.3029L188.461 64.2081Z" fill="#4D662A"/>
<path d="M211.306 56.9825C210.549 57.3954 209.654 57.8083 208.76 58.2212L206.145 47.8987L208.966 46.9353L211.306 56.9825Z" fill="#4D662A"/>
<path d="M139.669 53.404L138.843 65.4468C137.467 65.378 136.09 65.3092 134.852 65.1716L135.677 52.9911L139.669 53.404Z" fill="#4D662A"/>
<path d="M117.717 49.8255L115.79 61.7307C114.62 61.3866 113.519 61.0426 112.418 60.6985L114.207 48.9309L117.717 49.8255Z" fill="#4D662A"/>
<path d="M96.383 41.4987L95.0067 49.9631C94.7242 49.5573 94.4931 49.1181 94.3185 48.6556C94.0973 48.2203 93.9353 47.7574 93.8368 47.2792C93.2497 44.9237 92.813 42.5333 92.5293 40.1223L92.7357 38.0579C92.7357 38.0579 93.9056 39.4342 94.3873 39.9159C94.8002 40.3288 96.383 41.4987 96.383 41.4987Z" fill="#4D662A"/>
<path d="M157.079 42.2556C177.337 42.2556 193.758 37.6033 193.758 31.8644C193.758 26.1255 177.337 21.4731 157.079 21.4731C136.822 21.4731 120.4 26.1255 120.4 31.8644C120.4 37.6033 136.822 42.2556 157.079 42.2556Z" fill="#072359"/>
<path d="M190.592 30.2128C190.592 30.2128 187.908 33.2407 181.302 35.8557C176.416 37.7826 169.397 39.4342 159.763 39.4342C155.146 39.4646 150.537 39.0498 145.999 38.1955C133.131 35.7181 127.557 30.3504 127.557 30.3504C127.557 30.3504 130.378 9.43029 147.995 2.34223C152.071 0.745431 156.417 -0.0490357 160.795 0.00247569C185.018 0.00247569 190.592 30.2128 190.592 30.2128Z" fill="#CEEDA2"/>
<path d="M145.999 38.1955C133.131 35.7181 127.557 30.3505 127.557 30.3505C127.557 30.3505 130.378 9.43035 147.995 2.34229C144.554 5.23256 141.182 11.0131 140.632 20.4409C140.081 27.4602 141.733 33.3096 145.999 38.1955Z" fill="#CEEDA2"/>
<path d="M190.592 30.2128C190.592 30.2128 187.908 33.2407 181.302 35.8557C180.613 33.3625 179.739 30.9242 178.687 28.5612C178.687 28.5612 172.218 29.9375 169.328 23.8129C166.438 17.6882 173.388 13.284 173.388 13.284C173.388 13.284 171.737 7.98515 163.203 4.54434C154.67 1.10353 147.857 2.34223 147.857 2.34223C151.934 0.745431 156.28 -0.0490357 160.657 0.00247569C185.018 0.00247569 190.592 30.2128 190.592 30.2128Z" fill="#CEEDA2"/>
<path d="M162.86 17.2753C163.886 17.2753 164.718 16.4743 164.718 15.4861C164.718 14.498 163.886 13.6969 162.86 13.6969C161.834 13.6969 161.002 14.498 161.002 15.4861C161.002 16.4743 161.834 17.2753 162.86 17.2753Z" fill="#CEEDA2"/>
<path d="M156.39 18.9957C157.189 18.9957 157.836 18.3795 157.836 17.6194C157.836 16.8592 157.189 16.243 156.39 16.243C155.592 16.243 154.945 16.8592 154.945 17.6194C154.945 18.3795 155.592 18.9957 156.39 18.9957Z" fill="#CEEDA2"/>
<path d="M160.726 28.2859C162.284 28.2859 163.547 27.0535 163.547 25.5333C163.547 24.013 162.284 22.7806 160.726 22.7806C159.168 22.7806 157.904 24.013 157.904 25.5333C157.904 27.0535 159.168 28.2859 160.726 28.2859Z" fill="#CEEDA2"/>
</g>
<defs>
<clipPath id="clip0_54748_4466">
<rect width="311.935" height="160" fill="white" transform="translate(0.533203)"/>
</clipPath>
</defs>
</svg>
