<svg width="200" height="205" viewBox="0 0 200 205" fill="none" xmlns="http://www.w3.org/2000/svg">
<path d="M51.7826 7.98105C53.503 9.68485 55.3155 11.2884 57.3315 12.629C67.615 19.4689 98.2115 35.9264 146.738 29.2004C207.371 20.7965 198.476 81.7592 189.751 98.0068C181.026 114.254 148.939 144.039 146.244 158.962C143.549 173.885 155.082 214.644 128.061 202.413C101.04 190.183 85.4297 161.536 49.9624 164.865C14.4951 168.195 -10.567 152.478 5.13298 124.398C20.833 96.3183 39.6036 78.1982 15.6452 46.9205C-7.64818 16.5128 31.5871 -12.0199 51.7826 7.98105Z" fill="#F9FAEF"/>
<path d="M113.306 39.4834C112.857 39.0307 112.599 38.4217 112.588 37.7837C112.577 37.1457 112.813 36.5282 113.247 36.0601L129.245 18.7925C129.472 18.5479 129.745 18.3517 130.05 18.2156C130.354 18.0795 130.683 18.0064 131.016 18.0006C131.35 17.9948 131.681 18.0565 131.99 18.182C132.299 18.3074 132.579 18.4941 132.814 18.7306L134.195 20.1214C134.43 20.358 134.615 20.6397 134.738 20.9495C134.861 21.2593 134.921 21.5908 134.913 21.9242C134.904 22.2575 134.829 22.5858 134.691 22.8892C134.553 23.1926 134.354 23.465 134.108 23.6899L116.729 39.5667C116.258 39.9972 115.639 40.2288 115.001 40.2133C114.363 40.1978 113.756 39.9363 113.306 39.4834Z" fill="#CEEDA2"/>
<path d="M103.179 33.5975C102.797 33.428 102.495 33.1172 102.336 32.7301C102.177 32.343 102.174 31.9095 102.328 31.5203L107.99 17.1612C108.07 16.9578 108.19 16.7728 108.344 16.6172C108.497 16.4615 108.681 16.3386 108.883 16.2557C109.086 16.1727 109.302 16.1316 109.521 16.1347C109.74 16.1378 109.955 16.185 110.155 16.2736L111.33 16.7944C111.53 16.883 111.71 17.0111 111.859 17.171C112.008 17.3309 112.123 17.5193 112.198 17.7249C112.272 17.9304 112.304 18.1489 112.292 18.3672C112.28 18.5855 112.224 18.7991 112.127 18.9951L105.291 32.8334C105.105 33.2086 104.782 33.4976 104.389 33.64C103.995 33.7824 103.562 33.7672 103.179 33.5975Z" fill="#CEEDA2"/>
<path d="M92.8766 35.9444C91.5718 36.1793 90.2628 35.0598 89.9086 33.4065L83.6293 4.05076C83.2547 2.29642 84.0947 0.627899 85.4789 0.378419L87.4078 0.0312179C88.7918 -0.217982 90.1619 1.05322 90.4218 2.82772L94.7728 32.5305C95.0178 34.2039 94.1814 35.7095 92.8766 35.9444Z" fill="#CEEDA2"/>
<path d="M194.371 63.5713L166.677 60.0013C166.211 59.9515 165.741 60.045 165.329 60.2695C164.917 60.4939 164.584 60.8386 164.373 61.2575L157.009 75.7977L126.183 137.448C125.855 138.099 125.307 138.613 124.635 138.896C123.963 139.179 123.212 139.213 122.517 138.993L38.8471 112.286C38.6164 112.212 38.3714 112.194 38.1324 112.234C37.8934 112.273 37.6671 112.369 37.4723 112.513C37.2775 112.657 37.1197 112.845 37.0118 113.062C36.9039 113.279 36.849 113.518 36.8517 113.761L36.8901 117.235C36.8948 117.718 37.0518 118.187 37.3387 118.576C37.6256 118.965 38.0279 119.253 38.4882 119.4L127.014 147.655C128 147.97 128.886 148.541 129.582 149.309C130.277 150.076 130.758 151.014 130.974 152.027L131.003 152.166C131.773 156.395 127.605 159.868 123.498 158.621L26.4265 127.597C25.9285 127.438 25.4996 127.115 25.2107 126.68C24.9218 126.244 24.7901 125.723 24.8376 125.203L32.4346 42.2434C32.4728 41.8156 32.6005 41.4007 32.8094 41.0255C33.0184 40.6504 33.3039 40.3233 33.6475 40.0657C33.991 39.808 34.3849 39.6255 34.8036 39.5299C35.2223 39.4344 35.6563 39.4279 36.0777 39.511L152.367 62.26L159.857 47.3747C160.073 46.954 160.413 46.6098 160.831 46.3885C161.25 46.1672 161.725 46.0796 162.195 46.1373L196.108 50.4801C196.409 50.5179 196.699 50.615 196.962 50.7658C197.225 50.9166 197.456 51.118 197.64 51.3585C197.825 51.5989 197.96 51.8736 198.038 52.1667C198.116 52.4597 198.135 52.7653 198.094 53.0657L196.937 61.5956C196.857 62.197 196.542 62.7423 196.061 63.1124C195.581 63.4826 194.973 63.6475 194.371 63.5713Z" fill="#8AC732"/>
<path d="M37.124 98.0819L46.5998 101.106L55.6893 55.0147L41.1422 52.781L37.124 98.0819Z" fill="#F9FAEF"/>
<path d="M111.472 121.813L120.947 124.837L145.453 73.2248L135.016 70.6965L111.472 121.813Z" fill="#F9FAEF"/>
<path d="M75.0264 110.18L83.7733 112.972L102.509 64.3371L88.1949 61.3745L75.0264 110.18Z" fill="#F9FAEF"/>
<path d="M63.9396 56.8451L78.254 59.8076L65.5508 107.155L56.0752 104.131L63.9396 56.8451Z" fill="#F9FAEF"/>
<path d="M126.037 68.6336L111.722 65.6709L93.9785 116.229L102.725 119.021L126.037 68.6336Z" fill="#F9FAEF"/>
<path d="M38.9528 157.548C45.0801 157.548 50.0473 152.581 50.0473 146.454C50.0473 140.327 45.0801 135.359 38.9528 135.359C32.8256 135.359 27.8584 140.327 27.8584 146.454C27.8584 152.581 32.8256 157.548 38.9528 157.548Z" fill="#BEF0B2"/>
<path d="M108.198 179.65C114.325 179.65 119.292 174.683 119.292 168.556C119.292 162.429 114.325 157.462 108.198 157.462C102.071 157.462 97.1035 162.429 97.1035 168.556C97.1035 174.683 102.071 179.65 108.198 179.65Z" fill="#BEF0B2"/>
<path d="M199.353 50.021L170.125 46.3619C169.963 46.3416 169.816 46.4566 169.795 46.6186L168.024 60.7691C168.003 60.9311 168.118 61.0789 168.28 61.0992L197.508 64.7583C197.67 64.7786 197.818 64.6637 197.838 64.5017L199.61 50.3512C199.63 50.1891 199.515 50.0413 199.353 50.021Z" fill="#B3D089"/>
</svg>
