<svg width="170" height="24" viewBox="0 0 170 24" fill="none" xmlns="http://www.w3.org/2000/svg">
<path d="M0.320624 0.983999H6.72062V23H0.320624V0.983999ZM8.06462 0.983999H16.1926V5.88H8.06462V0.983999ZM8.06462 9.432H14.6886V14.328H8.06462V9.432ZM8.06462 18.104H16.1926V23H8.06462V18.104ZM30.4754 11.064C29.942 10.9787 29.174 10.936 28.1714 10.936C27.51 10.936 27.0407 10.9787 26.7634 11.064V6.424C28.278 6.44533 29.846 6.63733 31.4674 7V11.16L30.4754 11.064ZM26.5394 23.256C24.8754 23.256 23.5527 23.0533 22.5714 22.648C21.59 22.2427 20.8647 21.6453 20.3954 20.856C19.9687 20.1733 19.6914 19.3733 19.5634 18.456C19.4567 17.5387 19.4034 16.344 19.4034 14.872C19.4034 13.528 19.4567 12.408 19.5634 11.512C19.67 10.616 19.894 9.82667 20.2354 9.144C20.6407 8.35467 21.2487 7.74667 22.0594 7.32C22.8914 6.872 24.0114 6.59467 25.4194 6.488V14.84C25.4194 15.7787 25.4407 16.4827 25.4834 16.952C25.5474 17.4213 25.6647 17.784 25.8354 18.04C26.0274 18.296 26.294 18.4773 26.6354 18.584C26.998 18.6907 27.51 18.744 28.1714 18.744C29.302 18.744 30.0807 18.712 30.5074 18.648L31.5954 18.52V22.68C30.0167 23.064 28.3314 23.256 26.5394 23.256ZM43.9784 14.872C43.9784 13.784 43.9677 13.0587 43.9464 12.696C43.925 12.184 43.861 11.8 43.7544 11.544C43.6477 11.2667 43.477 11.096 43.2424 11.032C42.9864 10.968 42.6344 10.936 42.1864 10.936H41.7384V6.424H42.1864C44.0424 6.424 45.493 6.57333 46.5384 6.872C47.5837 7.14933 48.3624 7.61867 48.8744 8.28C49.3437 8.87733 49.6424 9.67733 49.7704 10.68C49.9197 11.6613 49.9944 13.0587 49.9944 14.872C49.9944 16.5573 49.941 17.8693 49.8344 18.808C49.749 19.7253 49.525 20.4827 49.1624 21.08C48.757 21.7413 48.149 22.2427 47.3384 22.584C46.5277 22.904 45.4077 23.1067 43.9784 23.192V14.872ZM42.1864 23.256C40.3304 23.256 38.8797 23.1173 37.8344 22.84C36.789 22.5627 36.0104 22.0933 35.4984 21.432C35.029 20.8347 34.7197 20.0453 34.5704 19.064C34.4424 18.0827 34.3784 16.6853 34.3784 14.872C34.3784 13.208 34.4317 11.9067 34.5384 10.968C34.645 10.0293 34.8797 9.25067 35.2424 8.632C35.6264 7.94933 36.2237 7.448 37.0344 7.128C37.845 6.78667 38.965 6.57333 40.3944 6.488V14.872C40.3944 15.96 40.405 16.6747 40.4264 17.016C40.4477 17.528 40.5117 17.912 40.6184 18.168C40.725 18.424 40.9064 18.584 41.1624 18.648C41.3757 18.712 41.717 18.744 42.1864 18.744H42.6344V23.256H42.1864ZM62.1989 13.048C62.1989 12.536 62.1455 12.1413 62.0389 11.864C61.9535 11.6507 61.8149 11.5227 61.6229 11.48C61.4522 11.416 61.1429 11.384 60.6949 11.384H60.5349V7.384C61.3669 6.76533 62.5189 6.456 63.9909 6.456C64.6522 6.456 65.2282 6.54133 65.7189 6.712C66.2095 6.86133 66.6255 7.13867 66.9669 7.544C67.7349 8.48267 68.1189 10.232 68.1189 12.792V23H62.1989V13.048ZM71.1269 13.048C71.1269 12.536 71.0735 12.1413 70.9669 11.864C70.8815 11.6507 70.7429 11.5227 70.5509 11.48C70.3802 11.416 70.0709 11.384 69.6229 11.384H69.4629C69.4202 10.8293 69.3562 10.2533 69.2709 9.656C69.1002 8.80267 68.9189 8.184 68.7269 7.8C69.6229 6.904 70.9029 6.456 72.5669 6.456C74.3802 6.456 75.6175 7.04267 76.2789 8.216C76.5775 8.728 76.7802 9.35733 76.8869 10.104C76.9935 10.8293 77.0469 11.7253 77.0469 12.792V23H71.1269V13.048ZM53.2709 6.68H59.1909V23H53.2709V6.68Z" fill="#0078FF"/>
<path d="M89.7364 13.048C89.7364 12.536 89.683 12.1413 89.5764 11.864C89.491 11.6507 89.3524 11.5227 89.1604 11.48C88.9897 11.416 88.6804 11.384 88.2324 11.384H88.0724V7.384C88.9044 6.76533 90.0564 6.456 91.5284 6.456C92.1897 6.456 92.7657 6.54133 93.2564 6.712C93.747 6.86133 94.163 7.13867 94.5044 7.544C95.2724 8.48267 95.6564 10.232 95.6564 12.792V23H89.7364V13.048ZM98.6644 13.048C98.6644 12.536 98.611 12.1413 98.5044 11.864C98.419 11.6507 98.2804 11.5227 98.0884 11.48C97.9177 11.416 97.6084 11.384 97.1604 11.384H97.0004C96.9577 10.8293 96.8937 10.2533 96.8084 9.656C96.6377 8.80267 96.4564 8.184 96.2644 7.8C97.1604 6.904 98.4404 6.456 100.104 6.456C101.918 6.456 103.155 7.04267 103.816 8.216C104.115 8.728 104.318 9.35733 104.424 10.104C104.531 10.8293 104.584 11.7253 104.584 12.792V23H98.6644V13.048ZM80.8084 6.68H86.7284V23H80.8084V6.68ZM115.098 13.24H117.338C117.338 12.0453 117.221 11.2773 116.986 10.936C116.858 10.744 116.687 10.6267 116.474 10.584C116.261 10.52 115.951 10.488 115.546 10.488H115.098V6.424H115.546C117.381 6.424 118.789 6.57333 119.77 6.872C120.773 7.17067 121.509 7.66133 121.978 8.344C122.405 8.94133 122.661 9.70933 122.746 10.648C122.853 11.5867 122.906 12.9947 122.906 14.872V16.152H115.098V13.24ZM116.186 23.256C114.223 23.256 112.677 23.096 111.546 22.776C110.437 22.4347 109.605 21.9013 109.05 21.176C108.559 20.536 108.239 19.7467 108.09 18.808C107.941 17.848 107.866 16.536 107.866 14.872C107.866 13.336 107.919 12.12 108.026 11.224C108.133 10.3067 108.357 9.528 108.698 8.888C109.082 8.184 109.669 7.64 110.458 7.256C111.269 6.85067 112.367 6.59467 113.754 6.488V16.152C113.754 16.8773 113.786 17.4 113.85 17.72C113.914 18.0187 114.063 18.2427 114.298 18.392C114.554 18.5627 114.949 18.6587 115.482 18.68C116.165 18.7227 116.89 18.744 117.658 18.744C119.023 18.744 120.015 18.712 120.634 18.648L122.266 18.52V22.648C121.413 22.904 120.239 23.0747 118.746 23.16C118.021 23.224 117.167 23.256 116.186 23.256ZM133.522 7.608C133.97 7.18133 134.493 6.88267 135.09 6.712C135.709 6.52 136.466 6.424 137.362 6.424V11.768C136.402 11.768 135.613 11.832 134.994 11.96C134.397 12.088 133.906 12.312 133.522 12.632V7.608ZM126.258 6.68H132.178V23H126.258V6.68ZM150.388 11.064C149.855 10.9787 149.087 10.936 148.084 10.936C147.423 10.936 146.953 10.9787 146.676 11.064V6.424C148.191 6.44533 149.759 6.63733 151.38 7V11.16L150.388 11.064ZM146.452 23.256C144.788 23.256 143.465 23.0533 142.484 22.648C141.503 22.2427 140.777 21.6453 140.308 20.856C139.881 20.1733 139.604 19.3733 139.476 18.456C139.369 17.5387 139.316 16.344 139.316 14.872C139.316 13.528 139.369 12.408 139.476 11.512C139.583 10.616 139.807 9.82667 140.148 9.144C140.553 8.35467 141.161 7.74667 141.972 7.32C142.804 6.872 143.924 6.59467 145.332 6.488V14.84C145.332 15.7787 145.353 16.4827 145.396 16.952C145.46 17.4213 145.577 17.784 145.748 18.04C145.94 18.296 146.207 18.4773 146.548 18.584C146.911 18.6907 147.423 18.744 148.084 18.744C149.215 18.744 149.993 18.712 150.42 18.648L151.508 18.52V22.68C149.929 23.064 148.244 23.256 146.452 23.256ZM161.523 13.24H163.763C163.763 12.0453 163.646 11.2773 163.411 10.936C163.283 10.744 163.112 10.6267 162.899 10.584C162.686 10.52 162.376 10.488 161.971 10.488H161.523V6.424H161.971C163.806 6.424 165.214 6.57333 166.195 6.872C167.198 7.17067 167.934 7.66133 168.403 8.344C168.83 8.94133 169.086 9.70933 169.171 10.648C169.278 11.5867 169.331 12.9947 169.331 14.872V16.152H161.523V13.24ZM162.611 23.256C160.648 23.256 159.102 23.096 157.971 22.776C156.862 22.4347 156.03 21.9013 155.475 21.176C154.984 20.536 154.664 19.7467 154.515 18.808C154.366 17.848 154.291 16.536 154.291 14.872C154.291 13.336 154.344 12.12 154.451 11.224C154.558 10.3067 154.782 9.528 155.123 8.888C155.507 8.184 156.094 7.64 156.883 7.256C157.694 6.85067 158.792 6.59467 160.179 6.488V16.152C160.179 16.8773 160.211 17.4 160.275 17.72C160.339 18.0187 160.488 18.2427 160.723 18.392C160.979 18.5627 161.374 18.6587 161.907 18.68C162.59 18.7227 163.315 18.744 164.083 18.744C165.448 18.744 166.44 18.712 167.059 18.648L168.691 18.52V22.648C167.838 22.904 166.664 23.0747 165.171 23.16C164.446 23.224 163.592 23.256 162.611 23.256Z" fill="white"/>
</svg>
