<svg width="196" height="204" viewBox="0 0 196 204" fill="none" xmlns="http://www.w3.org/2000/svg">
<path d="M51.6113 6.66648C53.3316 8.37028 55.1442 9.97383 57.1602 11.3145C67.4436 18.1543 98.0401 34.6119 146.567 27.8859C207.199 19.4819 198.304 80.4447 189.58 96.6922C180.855 112.94 148.768 142.724 146.073 157.647C143.378 172.57 154.91 213.33 127.889 201.099C100.868 188.868 85.2583 160.221 49.791 163.551C14.3237 166.88 -10.7384 151.164 4.96159 123.084C20.6616 95.0037 39.4322 76.8836 15.4738 45.6059C-7.81956 15.1982 31.4157 -13.3345 51.6113 6.66648Z" fill="#F9FAEF"/>
<circle cx="87.0535" cy="88.7747" r="76.7747" fill="#F0FFDB" stroke="#8AC732" stroke-width="10"/>
<circle cx="86.4664" cy="88.8973" r="47.9195" fill="#F1F1F1" stroke="#8AC732" stroke-width="10"/>
<circle cx="86.4664" cy="88.8973" r="29.6568" fill="#FFFEFF" stroke="#8AC732" stroke-width="2"/>
<mask id="path-5-inside-1_54757_29939" fill="white">
<path d="M86.4665 66.3588C86.4665 65.9087 86.1012 65.5422 85.6513 65.5579C80.0187 65.7545 74.6362 67.983 70.508 71.8468C66.3797 75.7107 63.8003 80.9341 63.2319 86.5414C63.1865 86.9893 63.528 87.3779 63.9772 87.4077C64.4264 87.4374 64.8131 87.097 64.8597 86.6493C65.4 81.4549 67.7958 76.6182 71.622 73.0371C75.4482 69.456 80.4326 67.3851 85.6514 67.1893C86.1012 67.1724 86.4665 66.809 86.4665 66.3588Z"/>
</mask>
<path d="M86.4665 66.3588C86.4665 65.9087 86.1012 65.5422 85.6513 65.5579C80.0187 65.7545 74.6362 67.983 70.508 71.8468C66.3797 75.7107 63.8003 80.9341 63.2319 86.5414C63.1865 86.9893 63.528 87.3779 63.9772 87.4077C64.4264 87.4374 64.8131 87.097 64.8597 86.6493C65.4 81.4549 67.7958 76.6182 71.622 73.0371C75.4482 69.456 80.4326 67.3851 85.6514 67.1893C86.1012 67.1724 86.4665 66.809 86.4665 66.3588Z" fill="#C4C4C4" stroke="#8AC732" stroke-width="2" mask="url(#path-5-inside-1_54757_29939)"/>
<rect x="119.143" y="134.411" width="14" height="74.1867" rx="7" transform="rotate(-45 119.143 134.411)" fill="#F1F1F1" stroke="#8AC732" stroke-width="2"/>
<rect x="134.608" y="137.781" width="0.974179" height="15.3623" rx="0.487089" transform="rotate(-45 134.608 137.781)" fill="white" stroke="#8AC732" stroke-width="0.974179"/>
<rect x="118.428" y="124.504" width="1" height="7" transform="rotate(-45 118.428 124.504)" fill="#C4C4C4" stroke="#8AC732"/>
<rect x="139.441" y="84.3611" width="19" height="1" rx="0.5" fill="#C4C4C4" stroke="#8AC732"/>
<rect x="15.7788" y="100.906" width="19" height="1" rx="0.5" fill="#C4C4C4" stroke="#8AC732"/>
<rect x="163.441" y="84.3611" width="9" height="1" rx="0.5" fill="#C4C4C4" stroke="#8AC732"/>
<rect x="144.441" y="91.6991" width="9" height="1" rx="0.5" fill="#C4C4C4" stroke="#8AC732"/>
<rect x="20.7788" y="108.244" width="9" height="1" rx="0.5" fill="#C4C4C4" stroke="#8AC732"/>
</svg>
